<?xml version="1.0" encoding="UTF-8"?>
<svg width="24px" height="24px" viewBox="0 0 24 24" version="1.1" xmlns="http://www.w3.org/2000/svg" xmlns:xlink="http://www.w3.org/1999/xlink">
    
    <defs>
        <path d="M11,2 C11,3.1 10.1,4 9,4 C7.9,4 7,3.1 7,2 C7,0.9 7.9,0 9,0 C10.1,0 11,0.9 11,2 Z M16,0 C14.9,0 14,0.9 14,2 C14,3.1 14.9,4 16,4 C17.1,4 18,3.1 18,2 C18,0.9 17.1,0 16,0 Z M2,0 C0.9,0 0,0.9 0,2 C0,3.1 0.9,4 2,4 C3.1,4 4,3.1 4,2 C4,0.9 3.1,0 2,0 Z" id="path-1"></path>
    </defs>
    <g id="More-Icon" stroke="none" stroke-width="1" fill="none" fill-rule="evenodd">
        <g id="icon-/-more-horizontal-copy-3" transform="translate(3.000000, 10.000000)">
            <mask id="mask-2" fill="white">
                <use xlink:href="#path-1"></use>
            </mask>
            <use id="Shape" fill="#000000" fill-rule="nonzero" xlink:href="#path-1"></use>
        </g>
    </g>
</svg>